<?xml version="1.0" standalone="no"?>
<!DOCTYPE svg PUBLIC "-//W3C//DTD SVG 20010904//EN"
 "http://www.w3.org/TR/2001/REC-SVG-20010904/DTD/svg10.dtd">
<svg version="1.0" xmlns="http://www.w3.org/2000/svg"
 width="1080.000000pt" height="1080.000000pt" viewBox="0 0 1080.000000 1080.000000"
 preserveAspectRatio="xMidYMid meet">

<g transform="translate(0.000000,1080.000000) scale(0.100000,-0.100000)"
fill="#000000" stroke="none">
<path d="M0 5400 l0 -5400 5400 0 5400 0 0 5400 0 5400 -5400 0 -5400 0 0
-5400z m5749 1460 c54 -27 88 -71 101 -132 8 -36 10 -154 8 -364 l-3 -311 -30
-48 c-20 -32 -45 -56 -74 -72 -44 -23 -47 -23 -390 -23 l-345 0 -121 -120
c-133 -132 -154 -142 -200 -95 -23 22 -25 31 -25 123 0 98 0 100 -25 106 -35
9 -96 65 -111 103 -11 25 -14 109 -14 370 0 392 2 399 86 453 l48 30 528 0
c505 0 531 -1 567 -20z m396 -401 c56 -15 104 -54 126 -103 17 -37 19 -70 19
-377 0 -332 0 -336 -23 -380 -16 -31 -38 -53 -75 -74 l-51 -30 -1 -91 c0 -108
-18 -144 -73 -144 -28 0 -49 16 -146 114 l-115 115 -355 3 c-354 3 -356 3
-398 27 -50 28 -77 63 -94 120 l-12 42 58 59 c33 33 65 60 72 60 9 0 13 -19
13 -64 0 -101 -20 -96 404 -96 l361 0 72 -72 73 -72 0 72 0 72 57 0 c97 0 93
-16 93 341 0 307 0 308 -22 323 -15 11 -45 16 -85 16 l-63 0 0 75 0 75 63 0
c34 0 80 -5 102 -11z m2755 -1179 l0 -80 -1175 0 -1175 0 0 80 0 80 1175 0
1175 0 0 -80z m-4632 -17 l-3 -78 -1177 -3 -1178 -2 0 80 0 80 1180 0 1181 0
-3 -77z m2832 -607 l0 -145 44 25 c88 49 208 41 266 -19 56 -57 64 -105 65
-367 l0 -235 -117 -3 -118 -3 0 200 c0 110 -4 211 -10 225 -8 21 -16 26 -43
26 -20 0 -46 -9 -61 -21 l-26 -20 0 -205 0 -204 -115 0 -115 0 0 445 0 445
115 0 115 0 0 -144z m-5220 -331 l0 -416 -117 3 -118 3 -3 400 c-1 220 0 406
3 412 3 10 37 13 120 13 l115 0 0 -415z m3001 405 c30 -6 74 -23 99 -38 61
-38 84 -80 83 -156 0 -68 -18 -117 -56 -159 l-27 -28 23 -8 c29 -12 73 -59 86
-94 17 -45 13 -147 -8 -193 -23 -51 -75 -94 -143 -119 -47 -18 -79 -20 -268
-20 l-215 0 -3 413 -2 412 189 0 c103 0 213 -5 242 -10z m-1323 -97 l3 -83 69
0 70 0 0 -90 0 -90 -70 0 -70 0 0 -124 c0 -122 0 -125 26 -145 20 -16 35 -19
64 -15 l37 6 17 -82 c10 -45 14 -86 10 -90 -18 -18 -144 -31 -200 -21 -95 18
-129 44 -165 126 -19 42 -23 74 -27 198 l-5 147 -38 0 -39 0 0 51 0 52 -50
-67 c-28 -36 -53 -66 -55 -66 -2 0 -25 11 -51 25 -53 28 -96 32 -113 11 -10
-11 -7 -17 11 -30 12 -9 27 -16 33 -16 19 0 140 -61 163 -83 75 -69 77 -188 6
-267 -87 -96 -254 -112 -402 -39 -35 17 -66 37 -69 45 -6 15 82 144 98 144 6
0 29 -11 52 -24 74 -42 147 -46 147 -6 0 13 -21 26 -79 50 -44 17 -97 47 -119
66 -109 93 -88 254 41 321 45 24 64 27 142 27 78 1 98 -3 150 -27 33 -15 67
-35 77 -44 17 -15 18 -14 18 20 l0 37 48 0 49 0 12 85 13 86 97 -3 96 -3 3
-82z m3072 2 l0 -85 70 0 70 0 0 -90 0 -90 -71 0 -71 0 4 -126 c3 -119 4 -127
27 -145 19 -16 33 -19 62 -14 42 7 40 10 59 -88 6 -32 9 -64 7 -71 -9 -22
-127 -38 -196 -27 -71 12 -86 19 -128 63 -50 51 -64 105 -70 265 l-6 142 -36
3 -36 3 0 85 0 85 46 3 46 3 13 77 c7 42 14 80 17 85 2 4 47 7 99 7 l94 0 0
-85z m-4129 -76 c50 -17 96 -66 116 -123 14 -43 17 -90 18 -286 l0 -235 -117
-3 -118 -3 0 200 c0 110 -4 211 -10 225 -8 21 -16 26 -43 26 -20 0 -46 -9 -61
-21 l-26 -20 0 -205 0 -204 -115 0 -115 0 0 320 0 321 97 -3 98 -3 5 -28 5
-29 25 20 c73 56 166 76 241 51z m1637 -4 c65 -19 119 -66 146 -125 19 -41 21
-67 24 -282 l4 -238 -95 0 c-93 0 -95 0 -101 25 l-7 26 -45 -27 c-59 -35 -117
-45 -178 -32 -154 33 -197 262 -66 353 45 31 139 63 207 72 51 5 53 7 37 24
-26 29 -66 32 -130 9 -102 -37 -95 -39 -138 44 -22 42 -38 78 -35 80 2 2 28
16 57 30 105 53 227 68 320 41z m1527 3 c3 -3 -2 -50 -12 -104 l-19 -99 -43 3
c-53 4 -108 -19 -136 -56 -18 -24 -20 -45 -23 -210 l-3 -183 -112 3 -112 3 -3
318 -2 318 97 -3 98 -3 3 -37 c2 -21 6 -38 9 -38 3 0 14 12 26 26 34 43 113
76 174 71 29 -2 55 -6 58 -9z m467 -20 c99 -46 158 -125 178 -239 29 -169 -59
-337 -203 -385 -158 -53 -327 17 -398 164 -31 64 -38 199 -15 270 61 184 261
271 438 190z m1876 3 c52 -27 108 -92 126 -150 20 -64 29 -143 21 -191 l-7
-40 -174 0 c-96 0 -174 -3 -174 -6 0 -3 5 -14 11 -26 24 -44 127 -62 196 -33
19 8 41 15 47 15 16 0 79 -118 72 -135 -8 -22 -82 -55 -157 -71 -126 -26 -244
9 -323 97 -26 29 -52 71 -62 102 -22 66 -22 195 0 256 33 89 113 169 199 197
58 19 173 12 225 -15z m702 13 c8 -9 -19 -169 -34 -192 -4 -7 -22 -9 -50 -6
-51 7 -97 -13 -123 -53 -15 -22 -19 -58 -23 -208 l-5 -180 -112 -3 -113 -3 0
321 0 320 94 0 c101 0 106 -3 106 -58 l0 -26 38 36 c52 51 96 69 160 65 29 -2
57 -8 62 -13z m447 -24 c35 -18 67 -38 70 -46 5 -14 -19 -55 -70 -118 l-23
-28 -52 26 c-53 27 -87 32 -111 17 -23 -15 0 -34 78 -65 135 -53 181 -105 181
-205 0 -62 -10 -89 -49 -134 -82 -92 -253 -108 -399 -36 -35 17 -66 37 -69 45
-5 14 56 113 84 136 10 8 25 5 61 -14 81 -44 152 -48 152 -8 0 13 -22 26 -82
51 -102 41 -160 91 -178 154 -33 118 34 222 165 256 17 5 63 6 104 4 57 -3 88
-11 138 -35z"/>
<path d="M4690 6727 l-25 -13 -3 -313 c-2 -223 1 -318 9 -327 8 -9 33 -14 75
-14 l64 0 0 -72 0 -72 73 72 72 72 367 0 c321 0 369 2 382 16 14 14 16 54 14
327 l-3 311 -25 13 c-19 10 -137 13 -500 13 -363 0 -481 -3 -500 -13z m210
-332 l0 -245 -70 0 -70 0 0 245 0 245 70 0 70 0 0 -245z m480 -65 l0 -180 -70
0 -70 0 0 180 0 180 70 0 70 0 0 -180z m-240 -55 l0 -125 -70 0 -70 0 0 125 0
125 70 0 70 0 0 -125z m480 -65 l0 -60 -75 0 -75 0 0 60 0 60 75 0 75 0 0 -60z"/>
<path d="M4680 4485 c0 -64 0 -65 28 -65 81 1 132 30 132 75 0 38 -30 55 -98
55 l-62 0 0 -65z"/>
<path d="M4680 4169 l0 -82 67 7 c87 9 115 23 127 64 8 28 6 36 -11 54 -22 21
-82 37 -145 38 l-38 0 0 -81z"/>
<path d="M4010 4162 c-28 -14 -35 -23 -35 -47 0 -25 4 -30 27 -33 41 -5 77 26
78 66 0 38 -16 41 -70 14z"/>
<path d="M5943 4344 c-19 -30 -29 -124 -19 -179 13 -68 81 -99 121 -55 34 37
33 210 -1 245 -26 25 -81 19 -101 -11z"/>
<path d="M7820 4358 c-11 -12 -20 -25 -20 -30 0 -4 34 -8 75 -8 56 0 75 3 75
13 0 46 -94 64 -130 25z"/>
</g>
</svg>
